<svg width="343" height="389" viewBox="0 0 343 389" fill="none" xmlns="http://www.w3.org/2000/svg">
<rect x="1.18359" y="1.21368" width="341" height="387" fill="#EFF0F2" stroke="#EFF0F2"/>
<path d="M74.3945 206.214H78.7145V184.794H74.3945V206.214Z" fill="black"/>
<path d="M87.7989 184.794H82.8189V206.214H86.7789V191.214H86.8389L92.1189 206.214H97.0389V184.794H93.0789V199.464H93.0189L87.7989 184.794Z" fill="black"/>
<path d="M113.373 194.484V187.974H115.173C116.253 187.974 117.023 188.254 117.483 188.814C117.943 189.374 118.173 190.194 118.173 191.274C118.173 192.374 117.903 193.184 117.363 193.704C116.843 194.224 116.153 194.484 115.293 194.484H113.373ZM109.053 184.794V206.214H113.373V197.664H115.683C116.703 197.664 117.633 197.534 118.473 197.274C119.313 197.014 120.023 196.624 120.603 196.104C121.203 195.584 121.663 194.914 121.983 194.094C122.323 193.274 122.493 192.314 122.493 191.214C122.493 190.414 122.393 189.634 122.193 188.874C121.993 188.094 121.663 187.404 121.203 186.804C120.743 186.204 120.133 185.724 119.373 185.364C118.633 184.984 117.713 184.794 116.613 184.794H109.053Z" fill="black"/>
<path d="M125.509 184.794V206.214H129.829V197.154H132.139C133.039 197.154 133.679 197.394 134.059 197.874C134.439 198.354 134.649 199.014 134.689 199.854L134.809 203.964C134.829 204.384 134.869 204.794 134.929 205.194C134.989 205.574 135.129 205.914 135.349 206.214H140.029V206.034C139.629 205.814 139.369 205.404 139.249 204.804C139.169 204.204 139.109 203.334 139.069 202.194C139.049 201.614 139.029 201.094 139.009 200.634C138.989 200.154 138.959 199.714 138.919 199.314C138.799 198.114 138.489 197.244 137.989 196.704C137.489 196.164 136.699 195.814 135.619 195.654V195.594C136.839 195.334 137.739 194.754 138.319 193.854C138.899 192.934 139.189 191.754 139.189 190.314C139.189 188.454 138.689 187.074 137.689 186.174C136.689 185.254 135.289 184.794 133.489 184.794H125.509ZM129.829 194.154V187.974H131.869C133.869 187.974 134.869 188.964 134.869 190.944C134.869 192.104 134.589 192.934 134.029 193.434C133.469 193.914 132.669 194.154 131.629 194.154H129.829Z" fill="black"/>
<path d="M146.949 195.504C146.949 194.064 146.979 192.844 147.039 191.844C147.119 190.844 147.259 190.024 147.459 189.384C147.679 188.744 147.979 188.284 148.359 188.004C148.759 187.704 149.279 187.554 149.919 187.554C150.559 187.554 151.069 187.704 151.449 188.004C151.849 188.284 152.149 188.744 152.349 189.384C152.569 190.024 152.709 190.844 152.769 191.844C152.849 192.844 152.889 194.064 152.889 195.504C152.889 196.944 152.849 198.174 152.769 199.194C152.709 200.194 152.569 201.014 152.349 201.654C152.149 202.274 151.849 202.734 151.449 203.034C151.069 203.314 150.559 203.454 149.919 203.454C149.279 203.454 148.759 203.314 148.359 203.034C147.979 202.734 147.679 202.274 147.459 201.654C147.259 201.014 147.119 200.194 147.039 199.194C146.979 198.174 146.949 196.944 146.949 195.504ZM142.629 195.504C142.629 197.144 142.699 198.644 142.839 200.004C142.999 201.364 143.329 202.534 143.829 203.514C144.349 204.494 145.089 205.244 146.049 205.764C147.009 206.284 148.299 206.544 149.919 206.544C151.539 206.544 152.829 206.284 153.789 205.764C154.749 205.244 155.479 204.494 155.979 203.514C156.499 202.534 156.829 201.364 156.969 200.004C157.129 198.644 157.209 197.144 157.209 195.504C157.209 193.884 157.129 192.394 156.969 191.034C156.829 189.654 156.499 188.474 155.979 187.494C155.479 186.514 154.749 185.754 153.789 185.214C152.829 184.654 151.539 184.374 149.919 184.374C148.299 184.374 147.009 184.654 146.049 185.214C145.089 185.754 144.349 186.514 143.829 187.494C143.329 188.474 142.999 189.654 142.839 191.034C142.699 192.394 142.629 193.884 142.629 195.504Z" fill="black"/>
<path d="M165.179 203.034V187.974H167.009C167.829 187.974 168.479 188.134 168.959 188.454C169.459 188.754 169.829 189.214 170.069 189.834C170.329 190.434 170.499 191.194 170.579 192.114C170.659 193.034 170.699 194.104 170.699 195.324C170.699 196.784 170.649 198.004 170.549 198.984C170.469 199.964 170.289 200.754 170.009 201.354C169.749 201.954 169.389 202.384 168.929 202.644C168.469 202.904 167.859 203.034 167.099 203.034H165.179ZM160.859 184.794V206.214H167.669C169.109 206.214 170.299 205.994 171.239 205.554C172.179 205.114 172.929 204.444 173.489 203.544C174.049 202.644 174.439 201.504 174.659 200.124C174.899 198.724 175.019 197.084 175.019 195.204C175.019 193.624 174.929 192.194 174.749 190.914C174.569 189.634 174.219 188.544 173.699 187.644C173.199 186.724 172.489 186.024 171.569 185.544C170.649 185.044 169.439 184.794 167.939 184.794H160.859Z" fill="black"/>
<path d="M182.826 184.794H178.506V199.734C178.506 201.174 178.696 202.344 179.076 203.244C179.456 204.144 179.966 204.844 180.606 205.344C181.246 205.824 181.976 206.144 182.796 206.304C183.616 206.464 184.466 206.544 185.346 206.544C186.226 206.544 187.076 206.454 187.896 206.274C188.716 206.094 189.446 205.744 190.086 205.224C190.726 204.704 191.236 204.004 191.616 203.124C191.996 202.224 192.186 201.094 192.186 199.734V184.794H187.866V199.734C187.866 200.274 187.826 200.774 187.746 201.234C187.686 201.674 187.556 202.064 187.356 202.404C187.176 202.724 186.926 202.984 186.606 203.184C186.286 203.364 185.866 203.454 185.346 203.454C184.846 203.454 184.426 203.364 184.086 203.184C183.766 202.984 183.506 202.724 183.306 202.404C183.126 202.064 182.996 201.674 182.916 201.234C182.856 200.774 182.826 200.274 182.826 199.734V184.794Z" fill="black"/>
<path d="M204.968 192.024H209.288C209.288 191.244 209.228 190.414 209.108 189.534C209.008 188.634 208.738 187.804 208.298 187.044C207.858 186.264 207.188 185.624 206.288 185.124C205.408 184.624 204.198 184.374 202.658 184.374C201.038 184.374 199.748 184.654 198.788 185.214C197.828 185.754 197.088 186.514 196.568 187.494C196.068 188.474 195.738 189.654 195.578 191.034C195.438 192.394 195.368 193.884 195.368 195.504C195.368 197.144 195.438 198.644 195.578 200.004C195.738 201.364 196.068 202.534 196.568 203.514C197.088 204.494 197.828 205.244 198.788 205.764C199.748 206.284 201.038 206.544 202.658 206.544C204.078 206.544 205.228 206.324 206.108 205.884C207.008 205.444 207.698 204.834 208.178 204.054C208.678 203.274 209.018 202.364 209.198 201.324C209.378 200.284 209.468 199.184 209.468 198.024H205.148C205.148 199.184 205.078 200.124 204.938 200.844C204.798 201.544 204.608 202.094 204.368 202.494C204.128 202.874 203.838 203.134 203.498 203.274C203.178 203.394 202.828 203.454 202.448 203.454C201.988 203.454 201.578 203.364 201.218 203.184C200.878 202.984 200.588 202.614 200.348 202.074C200.128 201.514 199.958 200.734 199.838 199.734C199.738 198.734 199.688 197.424 199.688 195.804C199.688 194.284 199.728 193.004 199.808 191.964C199.888 190.904 200.028 190.054 200.228 189.414C200.428 188.754 200.698 188.284 201.038 188.004C201.398 187.704 201.848 187.554 202.388 187.554C203.368 187.554 204.038 187.914 204.398 188.634C204.778 189.334 204.968 190.464 204.968 192.024Z" fill="black"/>
<path d="M225.371 184.794H211.691V188.334H216.371V206.214H220.691V188.334H225.371V184.794Z" fill="black"/>
<path d="M228.355 206.214H232.675V184.794H228.355V206.214Z" fill="black"/>
<path d="M240.65 195.504C240.65 194.064 240.68 192.844 240.74 191.844C240.82 190.844 240.96 190.024 241.16 189.384C241.38 188.744 241.68 188.284 242.06 188.004C242.46 187.704 242.98 187.554 243.62 187.554C244.26 187.554 244.77 187.704 245.15 188.004C245.55 188.284 245.85 188.744 246.05 189.384C246.27 190.024 246.41 190.844 246.47 191.844C246.55 192.844 246.59 194.064 246.59 195.504C246.59 196.944 246.55 198.174 246.47 199.194C246.41 200.194 246.27 201.014 246.05 201.654C245.85 202.274 245.55 202.734 245.15 203.034C244.77 203.314 244.26 203.454 243.62 203.454C242.98 203.454 242.46 203.314 242.06 203.034C241.68 202.734 241.38 202.274 241.16 201.654C240.96 201.014 240.82 200.194 240.74 199.194C240.68 198.174 240.65 196.944 240.65 195.504ZM236.33 195.504C236.33 197.144 236.4 198.644 236.54 200.004C236.7 201.364 237.03 202.534 237.53 203.514C238.05 204.494 238.79 205.244 239.75 205.764C240.71 206.284 242 206.544 243.62 206.544C245.24 206.544 246.53 206.284 247.49 205.764C248.45 205.244 249.18 204.494 249.68 203.514C250.2 202.534 250.53 201.364 250.67 200.004C250.83 198.644 250.91 197.144 250.91 195.504C250.91 193.884 250.83 192.394 250.67 191.034C250.53 189.654 250.2 188.474 249.68 187.494C249.18 186.514 248.45 185.754 247.49 185.214C246.53 184.654 245.24 184.374 243.62 184.374C242 184.374 240.71 184.654 239.75 185.214C238.79 185.754 238.05 186.514 237.53 187.494C237.03 188.474 236.7 189.654 236.54 191.034C236.4 192.394 236.33 193.884 236.33 195.504Z" fill="black"/>
<path d="M259.33 184.794H254.35V206.214H258.31V191.214H258.37L263.65 206.214H268.57V184.794H264.61V199.464H264.55L259.33 184.794Z" fill="black"/>
</svg>
